# xmcd CD database file
#
# Track frame offsets:
#	150
#	30482
#	62410
#	89882
#	112775
#	124957
#	147927
#	181685
#	204732
#	221582
#	248605
#
# Disc length: 3629 seconds
#
# Revision: 0
# Processed by: cddbd v1.5.1PL2 Copyright (c) Steve Scherf et al.
# Submitted via: CDex 1.51
#
DISCID=980e2b0b
DTITLE=Yutaka Shiina - Happy to Swing
DYEAR=2000
DGENRE=Jazz
TTITLE0=Warn Welcome
TTITLE1=Summer Mist
TTITLE2=I Got It Bad (And That Ain't Good)
TTITLE3=Midnight Dream
TTITLE4=Birth-Day-Wish
TTITLE5=Crescent City Parade
TTITLE6=Soul Eyes
TTITLE7=The Jitterbug Waltz
TTITLE8=The Chase
TTITLE9=Reflections
TTITLE10=Time Was
EXTD=YEAR: 2000
EXTT0=
EXTT1=
EXTT2=
EXTT3=
EXTT4=
EXTT5=
EXTT6=
EXTT7=
EXTT8=
EXTT9=
EXTT10=
PLAYORDER=
